<svg width="64" height="24" viewBox="0 0 64 24" fill="none" xmlns="http://www.w3.org/2000/svg">
<g clip-path="url(#clip0_166_4039)">
<path d="M6 19C6 20.1 6.9 21 8 21H16C17.1 21 18 20.1 18 19V7H6V19ZM19 4H15.5L14.5 3H9.5L8.5 4H5V6H19V4Z" fill="white"/>
</g>
<g clip-path="url(#clip1_166_4039)">
<path d="M43 17.25V21H46.75L57.81 9.94L54.06 6.19L43 17.25ZM60.71 7.04C61.1 6.65 61.1 6.02 60.71 5.63L58.37 3.29C57.98 2.9 57.35 2.9 56.96 3.29L55.13 5.12L58.88 8.87L60.71 7.04Z" fill="white"/>
</g>
<defs>
<clipPath id="clip0_166_4039">
<rect width="24" height="24" fill="white"/>
</clipPath>
<clipPath id="clip1_166_4039">
<rect width="24" height="24" fill="white" transform="translate(40)"/>
</clipPath>
</defs>
</svg>
